<?xml version="1.0" standalone="no"?>
<!DOCTYPE svg PUBLIC "-//W3C//DTD SVG 20010904//EN"
 "http://www.w3.org/TR/2001/REC-SVG-20010904/DTD/svg10.dtd">
<svg version="1.0" xmlns="http://www.w3.org/2000/svg"
 width="280.000000pt" height="280.000000pt" viewBox="0 0 280.000000 280.000000"
 preserveAspectRatio="xMidYMid meet">
<metadata>
Created by potrace 1.11, written by Peter Selinger 2001-2013
</metadata>
<g transform="translate(0.000000,280.000000) scale(0.100000,-0.100000)"
fill="#000000" stroke="none">
<path d="M1107 2760 c-37 -9 -73 -22 -80 -28 -6 -5 -45 -13 -84 -17 -40 -4
-73 -11 -73 -16 0 -5 5 -9 11 -9 24 0 -5 -20 -39 -26 -46 -8 -112 -36 -112
-47 0 -4 -15 -15 -32 -23 -18 -8 -53 -28 -78 -44 -25 -15 -51 -29 -57 -29 -7
-1 -13 -8 -13 -16 0 -8 -4 -15 -9 -15 -4 0 -19 -10 -33 -22 -13 -13 -58 -50
-99 -84 -41 -33 -81 -74 -89 -90 -8 -16 -26 -45 -40 -64 -15 -19 -41 -62 -59
-95 -19 -33 -45 -80 -59 -104 -14 -25 -20 -41 -12 -36 8 5 5 -7 -9 -30 -12
-21 -16 -33 -8 -27 12 10 16 9 20 -8 5 -20 -15 -50 -34 -50 -5 0 -7 -10 -4
-22 4 -14 -1 -31 -10 -43 -14 -17 -16 -17 -11 -2 6 18 -9 24 -19 7 -6 -10 -7
-39 -2 -143 2 -31 0 -62 -4 -68 -9 -16 1 -49 15 -49 8 0 11 -19 10 -57 -6
-182 -7 -231 0 -258 3 -16 8 -43 11 -60 2 -16 7 -43 10 -60 4 -16 8 -39 10
-50 2 -11 8 -35 13 -52 12 -36 -1 -53 -18 -26 -10 16 -11 16 -6 -2 3 -11 7
-36 10 -56 7 -50 22 -85 44 -107 11 -11 30 -46 42 -78 12 -32 26 -64 31 -70 7
-8 6 -13 -1 -16 -22 -7 179 -234 260 -294 22 -16 42 -36 45 -46 3 -9 17 -19
30 -22 14 -4 25 -13 25 -21 0 -16 33 -40 70 -50 l25 -6 -29 26 c-15 14 -26 29
-22 32 3 4 16 -3 29 -14 12 -11 50 -39 84 -62 34 -22 68 -50 75 -60 9 -13 56
-32 133 -55 232 -68 368 -84 506 -61 38 7 69 10 69 8 0 -2 13 5 30 17 16 12
33 19 37 17 11 -7 150 18 203 37 143 49 236 92 232 106 -3 8 -9 18 -15 21 -5
4 -5 9 2 13 6 4 11 2 11 -3 0 -22 48 -10 107 26 70 43 139 100 131 108 -3 3
41 52 97 108 56 56 108 113 115 127 10 21 10 23 -1 13 -34 -33 -23 -5 31 82
33 52 60 99 60 106 0 6 9 24 20 39 12 16 16 31 11 34 -9 6 2 38 41 126 6 14
11 29 9 34 -1 5 8 37 20 73 26 80 29 96 16 105 -8 5 -8 14 0 30 16 32 25 76
26 121 1 20 5 37 9 37 5 0 4 8 -1 18 -5 10 -6 36 -1 62 5 25 6 48 3 53 -3 4
-6 41 -7 81 -2 39 -8 81 -14 92 -9 15 -10 10 -5 -23 3 -24 3 -43 0 -43 -8 0
-37 60 -37 77 0 7 -4 13 -8 13 -4 0 -9 12 -10 26 -1 15 -11 56 -22 91 -11 36
-17 77 -14 91 3 16 2 22 -3 15 -5 -7 -14 -9 -23 -3 -11 7 -11 12 -2 23 10 11
10 21 1 41 -14 30 -26 33 -32 9 -3 -13 -11 -3 -26 30 -25 54 -34 61 -20 15 10
-35 5 -52 -6 -19 -3 12 -10 21 -15 21 -4 0 -6 9 -3 20 3 11 9 20 14 20 14 0
-33 99 -50 105 -9 3 -27 21 -41 41 -31 47 -74 87 -96 90 -9 2 -20 7 -23 11 -3
5 -27 23 -52 40 -25 17 -52 39 -60 49 -13 18 -12 18 16 0 17 -10 44 -28 60
-41 85 -62 57 -24 -51 69 -85 73 -154 113 -154 90 0 -11 -8 -9 -33 10 -19 15
-39 26 -44 26 -6 0 -16 7 -23 15 -9 10 -24 14 -43 11 -22 -3 -43 4 -82 28 -36
23 -68 35 -108 39 -32 4 -67 9 -80 12 -12 2 -35 7 -52 9 -16 3 -68 12 -115 21
-130 25 -281 27 -363 5z m576 -87 c-7 -3 -9 -11 -6 -20 4 -11 2 -14 -5 -9 -7
4 -12 12 -12 18 0 6 -8 17 -17 24 -15 12 -13 12 17 2 19 -6 29 -13 23 -15z
m87 2 c18 -10 20 -14 8 -15 -23 0 -48 11 -48 21 0 12 11 11 40 -6z m-647 -62
c-7 -2 -19 -2 -25 0 -7 3 -2 5 12 5 14 0 19 -2 13 -5z m1079 -248 c4 -5 5 -11
3 -13 -4 -5 -18 9 -50 48 l-20 25 30 -25 c16 -14 33 -29 37 -35z m-1727 15
c-3 -5 -11 -10 -16 -10 -6 0 -7 5 -4 10 3 6 11 10 16 10 6 0 7 -4 4 -10z m-39
-19 c-3 -5 -20 -14 -36 -20 -35 -12 -32 5 4 19 28 12 38 12 32 1z m1180 -77
c18 -9 48 -30 64 -48 32 -32 86 -131 96 -176 3 -14 10 -45 16 -70 6 -25 11
-85 13 -134 5 -207 -78 -305 -230 -270 -45 10 -53 21 -49 67 7 95 15 219 20
335 7 131 1 154 -38 147 -27 -6 -76 -52 -84 -79 -3 -12 -23 -43 -44 -71 -41
-55 -119 -220 -143 -305 -18 -64 -34 -151 -43 -235 -3 -33 -8 -64 -12 -69 -10
-17 -11 -190 0 -254 10 -68 31 -127 48 -137 36 -22 81 40 121 165 23 74 26 96
17 116 -26 56 24 96 142 115 68 10 74 10 93 -10 25 -25 26 -84 3 -129 -8 -16
-25 -58 -37 -93 -12 -35 -25 -68 -29 -74 -3 -5 -15 -32 -24 -60 -26 -70 -79
-163 -123 -212 l-38 -43 -86 -1 c-48 -1 -91 1 -97 4 -5 4 -35 9 -67 12 -110
11 -180 71 -215 186 -40 131 -17 299 74 548 19 52 33 98 30 103 -8 12 117 266
167 339 78 113 141 194 209 271 60 67 174 96 246 62z m-1463 -509 c-3 -9 -8
-14 -10 -11 -3 3 -2 9 2 15 9 16 15 13 8 -4z m2451 -156 c-3 -5 -10 -7 -15 -3
-5 3 -7 10 -3 15 3 5 10 7 15 3 5 -3 7 -10 3 -15z m-2409 -750 c30 -59 29 -89
-1 -38 -19 31 -37 89 -28 89 2 0 15 -23 29 -51z m140 -252 c21 -37 35 -70 32
-73 -3 -3 -19 6 -36 21 -20 19 -33 43 -40 77 -18 81 -12 78 44 -25z m2085 -24
c-1 -13 -29 -59 -30 -48 0 21 13 55 21 55 5 0 9 -3 9 -7z m-45 -43 c-11 -18
-43 -31 -50 -20 -3 6 4 14 17 19 31 13 40 13 33 1z m-82 -40 c-3 -12 -8 -19
-11 -16 -5 6 5 36 12 36 2 0 2 -9 -1 -20z m-1739 -120 l19 -25 -28 25 c-36 31
-41 36 -85 85 -30 34 -26 32 20 -10 31 -28 64 -61 74 -75z m-79 50 c3 -5 2
-10 -4 -10 -5 0 -13 5 -16 10 -3 6 -2 10 4 10 5 0 13 -4 16 -10z m155 -102 c0
-12 -14 -10 -28 4 -19 19 -14 29 8 16 11 -7 20 -16 20 -20z m1435 -18 c-3 -5
-12 -10 -18 -10 -7 0 -6 4 3 10 19 12 23 12 15 0z m-55 -89 c0 -5 -7 -12 -16
-15 -14 -5 -15 -4 -4 9 14 17 20 19 20 6z m-43 -47 c-3 -3 -12 -4 -19 -1 -8 3
-5 6 6 6 11 1 17 -2 13 -5z m-826 -50 c44 -7 54 -23 11 -18 -35 4 -82 21 -82
30 0 3 7 3 16 0 9 -3 33 -9 55 -12z m227 -43 c2 -1 1 -5 -3 -10 -3 -6 -15 -7
-28 -4 -12 2 -33 7 -46 10 -13 3 -26 0 -30 -6 -6 -9 -14 -9 -34 0 -15 7 -27
15 -27 18 0 5 147 -3 168 -8z"/>
</g>
</svg>
